<?xml version="1.0" standalone="no"?>
<!DOCTYPE svg PUBLIC "-//W3C//DTD SVG 20010904//EN"
 "http://www.w3.org/TR/2001/REC-SVG-20010904/DTD/svg10.dtd">
<svg version="1.0" xmlns="http://www.w3.org/2000/svg"
 width="1200.000000pt" height="1170.000000pt" viewBox="0 0 1200.000000 1170.000000"
 preserveAspectRatio="xMidYMid meet">

<g transform="translate(0.000000,1170.000000) scale(0.100000,-0.100000)"
fill="#000000" stroke="none">
<path d="M1955 11693 c-513 -45 -967 -256 -1331 -618 -355 -354 -565 -798
-613 -1299 -15 -153 -15 -7699 0 -7852 48 -499 260 -947 613 -1299 359 -358
798 -565 1305 -615 147 -14 7997 -14 8147 1 560 54 1068 321 1426 749 251 299
407 646 476 1051 16 98 17 346 17 4039 0 3693 -1 3941 -17 4039 -82 484 -296
898 -634 1220 -347 332 -787 534 -1268 580 -76 8 -1344 10 -4095 9 -2192 -1
-4004 -3 -4026 -5z m2594 -3016 c20 -10 156 -382 938 -2567 502 -1405 916
-2567 919 -2581 4 -17 0 -32 -11 -42 -15 -15 -67 -17 -566 -17 l-550 0 -22 23
c-15 15 -88 216 -227 624 -113 331 -207 597 -211 592 -3 -5 -392 -10 -934 -11
l-930 -3 -191 -595 c-112 -349 -199 -605 -212 -620 l-20 -25 -501 -3 c-340 -2
-508 1 -521 8 -13 7 -20 21 -20 41 0 17 361 1064 801 2327 441 1263 817 2344
835 2402 36 114 54 232 54 349 0 123 -72 111 689 111 501 0 662 -3 680 -13z
m4405 -1226 c358 -74 665 -236 861 -454 138 -153 278 -401 351 -622 100 -305
121 -571 82 -1034 -16 -190 3 -176 -281 -197 -186 -13 -254 -14 -371 -5 -89 7
-465 11 -990 11 l-845 0 5 -32 c17 -99 60 -234 99 -314 97 -201 235 -327 453
-414 317 -126 621 -142 1122 -59 176 29 378 82 443 115 25 13 31 14 38 2 5 -7
8 -203 7 -435 -3 -489 8 -441 -121 -492 -485 -192 -1279 -236 -1804 -101 -464
120 -821 384 -1070 792 -130 214 -220 480 -270 798 -28 178 -25 589 5 764 89
513 269 884 587 1201 252 252 523 403 835 465 166 32 258 39 520 35 199 -3
264 -7 344 -24z"/>
<path d="M3866 7769 c-3 -8 -19 -77 -37 -154 -36 -161 -90 -348 -252 -870 -64
-203 -129 -422 -147 -485 -17 -63 -65 -216 -106 -339 -41 -122 -74 -225 -74
-227 0 -2 286 -4 635 -4 374 0 635 4 635 9 0 5 -45 148 -99 318 -194 605 -391
1242 -462 1493 -39 140 -75 259 -80 264 -5 6 -10 4 -13 -5z"/>
<path d="M8322 6600 c-212 -56 -391 -214 -481 -427 -28 -64 -61 -181 -75 -260
l-5 -33 677 0 c611 1 682 3 727 18 l50 17 3 68 c2 38 -4 95 -13 130 -58 235
-248 428 -481 487 -105 27 -299 27 -402 0z"/>
</g>
</svg>
