<?xml version="1.0" standalone="no"?>
<!DOCTYPE svg PUBLIC "-//W3C//DTD SVG 20010904//EN"
 "http://www.w3.org/TR/2001/REC-SVG-20010904/DTD/svg10.dtd">
<svg version="1.0" xmlns="http://www.w3.org/2000/svg"
 width="800.000000pt" height="780.000000pt" viewBox="0 0 800.000000 780.000000"
 preserveAspectRatio="xMidYMid meet">

<g transform="translate(0.000000,780.000000) scale(0.100000,-0.100000)"
fill="#000000" stroke="none">
<path d="M1235 7789 c-535 -70 -997 -453 -1164 -966 -72 -220 -66 30 -66
-2923 0 -2953 -6 -2703 66 -2923 170 -524 638 -905 1189 -967 66 -8 909 -10
2805 -8 l2710 4 100 22 c378 87 683 297 892 614 103 156 171 323 210 515 17
83 18 233 18 2743 0 2510 -1 2660 -18 2743 -116 572 -532 998 -1102 1129
l-100 22 -2735 2 c-1579 1 -2765 -2 -2805 -7z m1976 -1979 c327 -32 574 -120
782 -276 333 -251 482 -684 401 -1168 -68 -401 -336 -714 -734 -854 -217 -76
-418 -102 -782 -102 l-258 0 -2 -552 -3 -553 -349 -3 c-273 -2 -351 1 -358 10
-10 16 -10 3459 0 3475 15 23 1107 42 1303 23z m3287 -1159 c2 -277 -1 -356
-10 -363 -7 -4 -57 -8 -110 -8 -272 0 -579 -95 -710 -218 l-28 -26 0 -857 c0
-472 -3 -864 -6 -873 -5 -14 -47 -16 -365 -16 -333 0 -359 1 -368 18 -6 11
-12 511 -15 1277 -3 693 -7 1285 -8 1315 l-3 55 312 3 c377 3 353 12 383 -138
11 -52 20 -124 20 -159 l0 -63 85 80 c224 212 494 333 735 329 l85 -2 3 -354z"/>
<path d="M2732 5163 l-112 -4 2 -562 3 -562 195 -3 c369 -6 572 47 723 187
111 104 150 209 150 396 -1 132 -23 212 -84 304 -75 113 -203 189 -382 227
-76 16 -302 24 -495 17z"/>
</g>
</svg>
