<?xml version="1.0" standalone="no"?>
<!DOCTYPE svg PUBLIC "-//W3C//DTD SVG 20010904//EN"
 "http://www.w3.org/TR/2001/REC-SVG-20010904/DTD/svg10.dtd">
<svg version="1.0" xmlns="http://www.w3.org/2000/svg"
 width="1200.000000pt" height="1200.000000pt" viewBox="0 0 1200.000000 1200.000000"
 preserveAspectRatio="xMidYMid meet">

<g transform="translate(0.000000,1200.000000) scale(0.100000,-0.100000)"
fill="#000000" stroke="none">
<path d="M6656 11332 c-10 -60 -21 -115 -26 -121 -6 -10 -43 -10 -186 4 -228
22 -839 17 -1054 -9 -889 -108 -1652 -383 -2364 -853 -671 -442 -1221 -1014
-1639 -1705 -117 -193 -312 -585 -391 -785 -174 -440 -296 -937 -340 -1383 -9
-85 -20 -194 -26 -241 -13 -109 -13 -585 0 -681 5 -40 14 -129 20 -197 74
-814 374 -1667 837 -2376 263 -401 624 -813 992 -1131 758 -655 1709 -1093
2691 -1240 63 -9 116 -18 118 -19 3 -2 -34 -203 -44 -236 -5 -19 4 -21 253
-44 615 -58 1335 8 1956 180 1532 426 2803 1475 3516 2902 43 87 93 192 111
233 18 41 38 89 45 105 78 181 183 492 243 720 212 799 246 1643 97 2445 -34
183 -39 206 -75 350 -225 897 -668 1724 -1287 2406 -835 920 -1967 1543 -3178
1749 -22 4 -49 9 -60 10 -30 6 -175 25 -184 25 -4 0 -15 -49 -25 -108z m-366
-2502 c225 -64 443 -240 612 -495 71 -107 182 -331 234 -470 l37 -100 -27 -80
c-129 -379 -493 -896 -1000 -1422 -131 -136 -193 -183 -241 -183 -48 0 -117
50 -254 184 -368 361 -688 770 -852 1089 -58 112 -58 99 3 257 228 588 582
1025 958 1181 170 71 365 85 530 39z m-1940 -2965 c422 -58 1011 -208 1107
-281 88 -67 84 -150 -28 -538 -218 -754 -509 -1310 -816 -1556 -290 -234 -722
-323 -1111 -230 -328 79 -632 291 -814 569 -132 201 -201 421 -214 681 -20
379 121 726 414 1017 194 192 431 306 731 348 128 19 570 13 731 -10z m3804
-75 c373 -385 543 -799 471 -1145 -19 -93 -91 -235 -157 -312 -171 -201 -446
-330 -829 -390 -138 -21 -558 -24 -709 -5 -110 14 -107 11 -179 145 -158 294
-331 768 -437 1201 -69 285 -52 304 411 430 273 74 581 134 805 155 189 18
198 19 369 17 l163 -2 92 -94z"/>
</g>
</svg>
